M48
;GenerationSoftware,Autodesk,EAGLE,9.6.2*%
;CreationDate,2021-01-24T07:44:33Z*%
FMAT,2
ICI,OFF
METRIC,TZ,000.000
T4C0.350
T3C0.813
T2C0.914
T1C1.016
%
G90
M71
T1
X30952Y52141
X59008Y37611
X59008Y40151
X59008Y42691
X33492Y52141
X36704Y17458
X39244Y17458
T2
X59998Y27366
X39808Y20906
X47428Y20906
X47038Y13765
X54658Y13765
X52517Y47952
X60137Y47952
X53890Y51621
X61510Y51621
X36376Y21528
X52378Y27366
X54368Y31225
X61988Y31225
X28756Y21528
X41082Y32888
X33462Y32888
T3
X39316Y36360
X41856Y36360
X54556Y43980
X44396Y36360
X46936Y36360
X52016Y36360
X49476Y36360
X52016Y43980
X49476Y43980
X46936Y43980
X44396Y43980
X41856Y43980
X39316Y43980
X43215Y58736
X53375Y58736
X53840Y54806
X64000Y54806
X47627Y16892
X57787Y16892
X60344Y19623
X50184Y19623
X51541Y22456
X61701Y22456
X32952Y18559
X22792Y18471
X28327Y26982
X38487Y26982
X26504Y29733
X36664Y29733
X22119Y42648
X22119Y37568
X22119Y40108
X22067Y29423
X22067Y24343
X22067Y26883
X21353Y59728
X21353Y54648
X21353Y57188
X38864Y55594
X28704Y55594
X36823Y24505
X26663Y24505
X30491Y33638
X20331Y33638
X36024Y40401
X25864Y40401
X36121Y37374
X25961Y37374
X42878Y56710
X42878Y46550
X38021Y58729
X27861Y58729
X36409Y53161
X36409Y43001
X29105Y46076
X32661Y46076
X25316Y54213
X25316Y44053
X42024Y26696
X45580Y26696
X46936Y32550
X44396Y32550
X46546Y53176
X50102Y53176
X45922Y47111
X48462Y47111
X54556Y36360
X62760Y16674
X60220Y16674
X63919Y24877
X48679Y24877
T4
X18383Y64454
X66498Y63127
X67065Y10913
X19003Y10916
M30