G04 EAGLE Gerber RS-274X export*
G75*
%MOMM*%
%FSLAX34Y34*%
%LPD*%
%INTop Copper*%
%IPPOS*%
%AMOC8*
5,1,8,0,0,1.08239X$1,22.5*%
G01*
%ADD10P,2.061953X8X22.500000*%
%ADD11P,2.061953X8X202.500000*%
%ADD12P,1.732040X8X202.500000*%
%ADD13C,1.320800*%
%ADD14P,1.429621X8X22.500000*%
%ADD15P,1.429621X8X202.500000*%
%ADD16P,1.429621X8X203.000000*%
%ADD17P,1.429621X8X292.500000*%
%ADD18C,1.600200*%
%ADD19P,1.732040X8X22.500000*%
%ADD20C,1.524000*%
%ADD21C,0.254000*%


D10*
X398076Y209060D03*
X474276Y209060D03*
X470379Y137646D03*
X546579Y137646D03*
X525168Y479523D03*
X601368Y479523D03*
X538900Y516208D03*
X615100Y516208D03*
D11*
X599976Y273662D03*
X523776Y273662D03*
D10*
X543677Y312248D03*
X619877Y312248D03*
D12*
X627597Y166742D03*
X602197Y166742D03*
D11*
X410825Y328883D03*
X334625Y328883D03*
X363759Y215275D03*
X287559Y215275D03*
D13*
X393155Y356996D02*
X393155Y370204D01*
X418555Y370204D02*
X418555Y356996D01*
X545555Y356996D02*
X545555Y370204D01*
X545555Y433196D02*
X545555Y446404D01*
X443955Y370204D02*
X443955Y356996D01*
X469355Y356996D02*
X469355Y370204D01*
X520155Y370204D02*
X520155Y356996D01*
X494755Y356996D02*
X494755Y370204D01*
X520155Y433196D02*
X520155Y446404D01*
X494755Y446404D02*
X494755Y433196D01*
X469355Y433196D02*
X469355Y446404D01*
X443955Y446404D02*
X443955Y433196D01*
X418555Y433196D02*
X418555Y446404D01*
X393155Y446404D02*
X393155Y433196D01*
D14*
X432148Y587358D03*
X533748Y587358D03*
X538401Y548056D03*
X640001Y548056D03*
X476267Y168918D03*
X577867Y168918D03*
D15*
X603435Y196228D03*
X501835Y196228D03*
D14*
X515407Y224559D03*
X617007Y224559D03*
D16*
X329521Y185593D03*
X227925Y184706D03*
D14*
X283268Y269819D03*
X384868Y269819D03*
X265041Y297329D03*
X366641Y297329D03*
D13*
X227794Y426476D02*
X214586Y426476D01*
X214586Y375676D02*
X227794Y375676D01*
X227794Y401076D02*
X214586Y401076D01*
X214064Y294232D02*
X227272Y294232D01*
X227272Y243432D02*
X214064Y243432D01*
X214064Y268832D02*
X227272Y268832D01*
X220135Y597280D02*
X206927Y597280D01*
X206927Y546480D02*
X220135Y546480D01*
X220135Y571880D02*
X206927Y571880D01*
D15*
X388638Y555944D03*
X287038Y555944D03*
X368228Y245053D03*
X266628Y245053D03*
X304908Y336380D03*
X203308Y336380D03*
X360241Y404014D03*
X258641Y404014D03*
X361208Y373743D03*
X259608Y373743D03*
D17*
X428779Y567099D03*
X428779Y465499D03*
D15*
X380213Y587293D03*
X278613Y587293D03*
D17*
X364091Y531612D03*
X364091Y430012D03*
D12*
X291048Y460756D03*
D18*
X326608Y460756D03*
D17*
X253164Y542131D03*
X253164Y440531D03*
D12*
X420242Y266959D03*
D18*
X455802Y266959D03*
D12*
X469355Y325500D03*
X443955Y325500D03*
X465458Y531764D03*
D18*
X501018Y531764D03*
D19*
X459221Y471108D03*
X484621Y471108D03*
D20*
X582461Y426905D02*
X597701Y426905D01*
X597701Y401505D02*
X582461Y401505D01*
X582461Y376105D02*
X597701Y376105D01*
X309522Y513790D02*
X309522Y529030D01*
X334922Y529030D02*
X334922Y513790D01*
X367040Y182199D02*
X367040Y166959D01*
X392440Y166959D02*
X392440Y182199D01*
D12*
X639186Y248770D03*
X486786Y248770D03*
D21*
X171987Y659222D02*
X172204Y92705D01*
X682529Y93835D01*
X683803Y659708D01*
X171987Y659222D01*
X191776Y108992D02*
X191709Y108654D01*
X191577Y108335D01*
X191386Y108049D01*
X191142Y107805D01*
X190855Y107613D01*
X190537Y107481D01*
X190199Y107414D01*
X189854Y107414D01*
X189516Y107481D01*
X189197Y107613D01*
X188911Y107805D01*
X188667Y108049D01*
X188475Y108335D01*
X188344Y108654D01*
X188276Y108992D01*
X188276Y109337D01*
X188344Y109675D01*
X188475Y109993D01*
X188667Y110280D01*
X188911Y110523D01*
X189197Y110715D01*
X189516Y110847D01*
X189854Y110914D01*
X190199Y110914D01*
X190537Y110847D01*
X190855Y110715D01*
X191142Y110523D01*
X191386Y110280D01*
X191577Y109993D01*
X191709Y109675D01*
X191776Y109337D01*
X191776Y108992D01*
X672403Y108959D02*
X672335Y108621D01*
X672204Y108302D01*
X672012Y108016D01*
X671768Y107772D01*
X671482Y107580D01*
X671163Y107448D01*
X670825Y107381D01*
X670480Y107381D01*
X670142Y107448D01*
X669824Y107580D01*
X669537Y107772D01*
X669293Y108016D01*
X669102Y108302D01*
X668970Y108621D01*
X668903Y108959D01*
X668903Y109303D01*
X668970Y109642D01*
X669102Y109960D01*
X669293Y110247D01*
X669537Y110490D01*
X669824Y110682D01*
X670142Y110814D01*
X670480Y110881D01*
X670825Y110881D01*
X671163Y110814D01*
X671482Y110682D01*
X671768Y110490D01*
X672012Y110247D01*
X672204Y109960D01*
X672335Y109642D01*
X672403Y109303D01*
X672403Y108959D01*
X666728Y631096D02*
X666661Y630758D01*
X666529Y630440D01*
X666338Y630153D01*
X666094Y629909D01*
X665807Y629718D01*
X665489Y629586D01*
X665151Y629519D01*
X664806Y629519D01*
X664468Y629586D01*
X664149Y629718D01*
X663863Y629909D01*
X663619Y630153D01*
X663428Y630440D01*
X663296Y630758D01*
X663228Y631096D01*
X663228Y631441D01*
X663296Y631779D01*
X663428Y632098D01*
X663619Y632384D01*
X663863Y632628D01*
X664149Y632820D01*
X664468Y632951D01*
X664806Y633019D01*
X665151Y633019D01*
X665489Y632951D01*
X665807Y632820D01*
X666094Y632628D01*
X666338Y632384D01*
X666529Y632098D01*
X666661Y631779D01*
X666728Y631441D01*
X666728Y631096D01*
X185583Y644364D02*
X185515Y644026D01*
X185383Y643708D01*
X185192Y643421D01*
X184948Y643177D01*
X184661Y642986D01*
X184343Y642854D01*
X184005Y642786D01*
X183660Y642786D01*
X183322Y642854D01*
X183004Y642986D01*
X182717Y643177D01*
X182473Y643421D01*
X182282Y643708D01*
X182150Y644026D01*
X182083Y644364D01*
X182083Y644709D01*
X182150Y645047D01*
X182282Y645365D01*
X182473Y645652D01*
X182717Y645896D01*
X183004Y646087D01*
X183322Y646219D01*
X183660Y646286D01*
X184005Y646286D01*
X184343Y646219D01*
X184661Y646087D01*
X184948Y645896D01*
X185192Y645652D01*
X185383Y645365D01*
X185515Y645047D01*
X185583Y644709D01*
X185583Y644364D01*
M02*
