G04 EAGLE Gerber RS-274X export*
G75*
%MOMM*%
%FSLAX34Y34*%
%LPD*%
%IN*%
%IPPOS*%
%AMOC8*
5,1,8,0,0,1.08239X$1,22.5*%
G01*
%ADD10C,0.254000*%


D10*
X171987Y659222D02*
X172204Y92705D01*
X682529Y93835D01*
X683803Y659708D01*
X171987Y659222D01*
X191776Y108992D02*
X191709Y108654D01*
X191577Y108335D01*
X191386Y108049D01*
X191142Y107805D01*
X190855Y107613D01*
X190537Y107481D01*
X190199Y107414D01*
X189854Y107414D01*
X189516Y107481D01*
X189197Y107613D01*
X188911Y107805D01*
X188667Y108049D01*
X188475Y108335D01*
X188344Y108654D01*
X188276Y108992D01*
X188276Y109337D01*
X188344Y109675D01*
X188475Y109993D01*
X188667Y110280D01*
X188911Y110523D01*
X189197Y110715D01*
X189516Y110847D01*
X189854Y110914D01*
X190199Y110914D01*
X190537Y110847D01*
X190855Y110715D01*
X191142Y110523D01*
X191386Y110280D01*
X191577Y109993D01*
X191709Y109675D01*
X191776Y109337D01*
X191776Y108992D01*
X672403Y108959D02*
X672335Y108621D01*
X672204Y108302D01*
X672012Y108016D01*
X671768Y107772D01*
X671482Y107580D01*
X671163Y107448D01*
X670825Y107381D01*
X670480Y107381D01*
X670142Y107448D01*
X669824Y107580D01*
X669537Y107772D01*
X669293Y108016D01*
X669102Y108302D01*
X668970Y108621D01*
X668903Y108959D01*
X668903Y109303D01*
X668970Y109642D01*
X669102Y109960D01*
X669293Y110247D01*
X669537Y110490D01*
X669824Y110682D01*
X670142Y110814D01*
X670480Y110881D01*
X670825Y110881D01*
X671163Y110814D01*
X671482Y110682D01*
X671768Y110490D01*
X672012Y110247D01*
X672204Y109960D01*
X672335Y109642D01*
X672403Y109303D01*
X672403Y108959D01*
X666728Y631096D02*
X666661Y630758D01*
X666529Y630440D01*
X666338Y630153D01*
X666094Y629909D01*
X665807Y629718D01*
X665489Y629586D01*
X665151Y629519D01*
X664806Y629519D01*
X664468Y629586D01*
X664149Y629718D01*
X663863Y629909D01*
X663619Y630153D01*
X663428Y630440D01*
X663296Y630758D01*
X663228Y631096D01*
X663228Y631441D01*
X663296Y631779D01*
X663428Y632098D01*
X663619Y632384D01*
X663863Y632628D01*
X664149Y632820D01*
X664468Y632951D01*
X664806Y633019D01*
X665151Y633019D01*
X665489Y632951D01*
X665807Y632820D01*
X666094Y632628D01*
X666338Y632384D01*
X666529Y632098D01*
X666661Y631779D01*
X666728Y631441D01*
X666728Y631096D01*
X185583Y644364D02*
X185515Y644026D01*
X185383Y643708D01*
X185192Y643421D01*
X184948Y643177D01*
X184661Y642986D01*
X184343Y642854D01*
X184005Y642786D01*
X183660Y642786D01*
X183322Y642854D01*
X183004Y642986D01*
X182717Y643177D01*
X182473Y643421D01*
X182282Y643708D01*
X182150Y644026D01*
X182083Y644364D01*
X182083Y644709D01*
X182150Y645047D01*
X182282Y645365D01*
X182473Y645652D01*
X182717Y645896D01*
X183004Y646087D01*
X183322Y646219D01*
X183660Y646286D01*
X184005Y646286D01*
X184343Y646219D01*
X184661Y646087D01*
X184948Y645896D01*
X185192Y645652D01*
X185383Y645365D01*
X185515Y645047D01*
X185583Y644709D01*
X185583Y644364D01*
M02*
